<svg id="Layer_1" data-name="Layer 1" xmlns="http://www.w3.org/2000/svg" viewBox="0 0 444.35 148.08"><defs><style>.cls-1{fill:#231f20;}</style></defs><title>lp-logo</title><path class="cls-1" d="M20.25,133.35c-1.71-1.53-1-4.76,5.44-24.65,8-24.48,10.87-34.17,16.48-55.76,5.61-21.93,7-29.07,7-34.51,0-2.72.17-3.23.68-3.74,1.19-1,2.55-.51,2.89,1.19.17.85-.85,6.46-4.08,20.23-7,29.92-13.09,52.36-22.94,83.3-3.75,11.56-3.75,12.07-3.41,12.07a48.32,48.32,0,0,0,4.93-3.06c5.61-3.57,9.18-5.78,13.26-7.48,9.52-4.25,23.8-8.67,29.58-9,2.38-.34,3.23,0,3.23,1,0,.68-.34.85-1.19.68a42.34,42.34,0,0,0-4.93,1.19c-14.11,3.4-25.33,7.82-36.72,14.79-8,4.59-9.18,5.1-10.37,3.74Z"/><path class="cls-1" d="M102,85.92c.17,0,.34.34,0,.51-.34.51-1,1.19-1.53,1.87-4.08,4.25-8.67,8.67-10.37,10-3.91,3.06-6.29,3.4-7.65,1-1.19-2-.68-5.27,2-13.6.85-2.72,1.7-5.1,1.53-5.27s-3.74,3.4-8.33,7.82C69,97,67.67,98.16,66,98.84c-.85.34-1,.34-1.53,0-1.19-.68-1.53-1.53-1.53-3.57,0-3.23,1.53-8,4.25-14.11,1.53-3.74,2-4.76,3.06-5.27a2.51,2.51,0,0,1,2.21,0,3.34,3.34,0,0,1,.68,4.76,52.29,52.29,0,0,0-6.46,12.41c-1,2.72-1,3.06-.68,3.06.17,0,3.91-3.57,8.33-8,8.16-8.16,10.2-10,11.9-10.88,1-.51,1.53-.51,2,.17,1,.85.85,1.87-1.36,8.5-2.89,8.84-3.4,11.39-2.55,12.92.51.51.68.51,1.53.51,2.38-.34,5.61-3.06,12.75-10,1.53-1.53,2.38-2.55,3.23-3.4H102Z"/><path class="cls-1" d="M142.64,32.37c.68.85.68.85.51,2.72,0,1.36-.17,1.87-1.19,3.91-2.89,5.61-7.82,12.58-16.32,22.44A173.43,173.43,0,0,1,110,77.93c-1,.85-2,1.87-2.21,2-.34.68-3.23,8.33-3.23,8.33.51.34,5.61-4.08,8.16-6.8,2.21-2.21,2.55-2.38,3.23-1.7s.51,1.36-.34,3.23c-.85,1.7-2.89,3.57-8.5,7.65-2.72,2.21-4.93,4.08-5.1,4.25-.34,1-.17,1.19,2.55,2.55,3.23,1.7,4.93,2,7,1.7,3.4-.68,7.31-3.06,12.92-7.65,1.36-1.36,3.06-2.89,4.76-4.59h.34c.34.17.51.51.17.85l-2.38,2.38c-8.84,8.84-14.79,12.24-19.72,11.73a20.1,20.1,0,0,1-6-1.87c-.68-.34-1.36-.51-1.36-.34-.34.34-2,6.8-2.72,9.52a30.31,30.31,0,0,0-.68,3.74c0,1.19-.17,1.53-1.19,1.53-2.21,0-2.21-4.76.17-14.28l.51-2.38,1.53-5.95,1.53-4.25c.85-2.21,1.53-4.59,1.87-5.27l.51-1.19s.85-2.38,1.19-3.23c1.36-2.72,4.59-9.18,6.29-12.07a111.68,111.68,0,0,1,19.55-26.52c5.44-5.61,8.67-7.82,11-7.82a2.34,2.34,0,0,1,2,.68Zm-4.25,3.57c-4.76,3.06-11,10.2-17,19a157,157,0,0,0-8.84,15.47l-2.38,4.76L112.38,73c1.19-1.36,3.57-3.74,5.27-5.78,4.42-5.1,5.61-6.29,8.67-10,6.63-8.5,12.24-17.17,13.6-21.25C140.26,34.75,140.09,34.75,138.39,35.94Z"/><path class="cls-1" d="M152.16,87.28c0,.17-.34.34-.51.51a129,129,0,0,1-13.77,13.6c-4.42,3.23-8,4.76-10.88,4.59a4.51,4.51,0,0,1-4.08-2.72,5.86,5.86,0,0,1-.51-3.23,9.32,9.32,0,0,1,.68-4.25c2.89-9,11-18.7,15-18.19,2.21.34,2.72,2.72,1.36,5.61a36.24,36.24,0,0,1-7.82,10.37,8.88,8.88,0,0,1-3.74,2.21c-1.19.17-1.19.17-1.7,1.36-.68,2-1.19,4.25-.85,5.1.34,1.19,1,1.53,2.55,1.53,4.25,0,10.71-4.42,21.08-15.13.85-.85,1.53-1.36,2.21-2a.64.64,0,0,1,1,0A.52.52,0,0,1,152.16,87.28Zm-21.08,1A24.53,24.53,0,0,0,128,93.74a2.59,2.59,0,0,0,1-.68c3.57-2.89,8.84-10,8.33-11.56,0-.85-4.08,3.23-6.46,6.8Z"/><path class="cls-1" d="M200.61,109.72a206,206,0,0,1-7.31,19.89c-1,2.38-2.21,3.74-2.89,3.74a1.44,1.44,0,0,1-1-.34c-.85-.34-1-1.36-.68-3.4.17-.85.51-2.89.85-4.59.68-3.57.34-6.63-1.19-11-1.19-3.91-2.38-6.29-6.12-12.07-3.91-6.12-5.1-8.16-6.29-11.05-3.06-7.82-2.72-14.62,1.7-23.12C185,52.94,204,35.43,224.24,25.06c10.37-5.44,21.08-9.18,30.6-10.71,4.42-.51,11.73-.34,15.13.51a19.73,19.73,0,0,1,11.22,7.65c2.55,3.74,3.57,7.82,3.23,13.94-.17,6.46-1.7,11.9-5.44,19.21-3.74,7.48-8.5,13.94-15.64,21.42-9.52,9.69-19,17-29.41,22.27-8.67,4.25-16.32,6.29-21.08,5.1a9.21,9.21,0,0,1-7.31-6.29c-.34-.85-.51-1-.68-.85-.17.34-2,6-4.25,12.58Zm-8.67,7.65c.34.51.34.34.85-1,3.91-10.71,10.54-27.71,12.58-33,14.11-34.68,17-41.82,18.19-47.94.51-2,.51-2.72.34-3.23a4.78,4.78,0,0,1,.17-3.74c.34-.34.51-.68.34-.68a17.18,17.18,0,0,0-3.4,1.7c-15.64,9.18-30.26,22.1-38.08,33.66a55,55,0,0,0-5.61,11.56c-.85,3.4-1.19,8.33-.34,11,1,4.59,2.21,6.8,9,17.34a51.82,51.82,0,0,1,5.95,14.11Zm37.23-92.48c-3.4,1.87-3.91,2.21-3.23,2.21,1.87.34,2,2.55.68,8.16-1,4.59-2.38,8.5-7,20.57-4.42,11.73-9.18,25.16-11.22,30.94C206.9,91,206.9,91,207.24,92.89c.51,3.4,2.21,6,4.08,6.46a20.39,20.39,0,0,0,7.14-.17c7.48-1.53,18.7-6.8,27.37-12.92C264.87,73,277.62,56.34,281.19,40a32,32,0,0,0,0-11.39c-2.72-11.39-14.11-15.47-31.45-11a102.57,102.57,0,0,0-20.4,7.48Z"/><path class="cls-1" d="M289.69,84.9c.17.51,0,1-.51,1-.85.34-2,.51-3.06.85-3.57.68-.34.68-4.76,1s-4.08.17-4.76,1.53c-2,4.08-6.8,9-9.52,10-2.38.85-3.91-.51-4.42-3.4a33.2,33.2,0,0,1,.51-5.78,46.71,46.71,0,0,1,1.53-4.76c.85-1.53,2-2.55,2.89-2.55a1.47,1.47,0,0,0,1-.51c2.38-1.7,6.12-2.55,7.65-1.7s1.87,1.53,1.87,3.57v1.87H279c1.53,0-.68.17,2.21-.17,2.21-.34,3.23-.51,8-1.53a.76.76,0,0,1,1,.34Zm-16.83,5.44c.85-1,1.36-1.87,1.19-1.87s-1.53-.17-3.06-.17h-3.06l-.85,1.87a19.81,19.81,0,0,0-1.36,6.29c.17.51,1.36.17,2.38-.68a36.86,36.86,0,0,0,4.76-5.27Zm2.72-5.27c.51-1.53.17-2.38-.85-2.38a10.42,10.42,0,0,0-3.91,1.7c-1.36.85-1.53,1-1.53,1.53s.51.51,3.4.51h2.38l.34-1.19Z"/><path class="cls-1" d="M308.39,85.92c.51,0,1,.51.51,1l-2.38,2.89c-9,10.88-10.71,12.75-14.11,13.94a4.64,4.64,0,0,1-4.25-.17c-2.55-1.53-3.4-4.76-2.21-10,.17-1,.34-2,.34-2.21s1.87-5.44,2.55-7.48c1.87-4.93,2.72-6.46,3.4-7a1.82,1.82,0,0,1,2.38.17c.85.51.85.68,1,1.87.17,1.36-.17,1.7-2.55,7.65-1.7,4.59-2.55,7.31-3.06,9.18-.85,3.91-.85,4.42-.17,4.93.51.34.85.34,1.87.17,2.89-.68,6.8-4.25,16.15-15.13.17-.17.34-.34.51-.34ZM293.94,71.3a2.65,2.65,0,0,1,2.72-2.55A2.47,2.47,0,0,1,299,71.3,2.52,2.52,0,0,1,296.66,74,2.69,2.69,0,0,1,293.94,71.3Z"/><path class="cls-1" d="M332.52,85.92c-.51,0-1,.34-2,1-4.76,2.38-6.29,2.72-7.65,1.87-.68-.17-1-.51-1.53-1.36-.51-1.19-.51-1.53-.51-4.25a7,7,0,0,0-.34-2.89c-.51,0-2.89,2.38-4.76,4.76a76.13,76.13,0,0,0-9.52,13.26,9.72,9.72,0,0,1-1.7,2.89,1.14,1.14,0,0,1-1.7,0c-.85-.85-.85-.85,2.21-8.84.68-2,1.7-4.59,2-5.95.51-1.19.85-2.38,1-2.55a23.24,23.24,0,0,1,.85-3.23,1.76,1.76,0,0,1,3.23-.34c.51,1,.34,2.38-.68,5.1-.34,1.19-.51,2-.34,2,.17-.34,1-1.19,1.87-2.38,3.06-3.57,6.46-6.46,7.82-6.46,1.53,0,1.7.51,1.87,4.93.17,3.91.17,3.91.51,4.25,1,1,2.55.51,8-2a7.39,7.39,0,0,0,1.19-.68h.34C332.86,85.24,332.69,85.58,332.52,85.92Z"/><path class="cls-1" d="M357,85.92c-.51,0-1,.34-2,1-4.76,2.38-6.29,2.72-7.65,1.87-.68-.17-1-.51-1.53-1.36-.51-1.19-.51-1.53-.51-4.25a7,7,0,0,0-.34-2.89c-.51,0-2.89,2.38-4.76,4.76a76.13,76.13,0,0,0-9.52,13.26,9.72,9.72,0,0,1-1.7,2.89,1.14,1.14,0,0,1-1.7,0c-.85-.85-.85-.85,2.21-8.84.68-2,1.7-4.59,2-5.95.51-1.19.85-2.38,1-2.55a23.24,23.24,0,0,1,.85-3.23,1.76,1.76,0,0,1,3.23-.34c.51,1,.34,2.38-.68,5.1-.34,1.19-.51,2-.34,2,.17-.34,1-1.19,1.87-2.38,3.06-3.57,6.46-6.46,7.82-6.46,1.53,0,1.7.51,1.87,4.93.17,3.91.17,3.91.51,4.25,1,1,2.55.51,8-2a7.39,7.39,0,0,0,1.19-.68h.34C357.34,85.24,357.17,85.58,357,85.92Z"/><path class="cls-1" d="M375.7,85.92c.51,0,1,.51.51,1l-2.38,2.89c-9,10.88-10.71,12.75-14.11,13.94a4.64,4.64,0,0,1-4.25-.17c-2.55-1.53-3.4-4.76-2.21-10,.17-1,.34-2,.34-2.21s1.87-5.44,2.55-7.48c1.87-4.93,2.72-6.46,3.4-7a1.82,1.82,0,0,1,2.38.17c.85.51.85.68,1,1.87.17,1.36-.17,1.7-2.55,7.65-1.7,4.59-2.55,7.31-3.06,9.18-.85,3.91-.85,4.42-.17,4.93.51.34.85.34,1.87.17,2.89-.68,6.8-4.25,16.15-15.13.17-.17.34-.34.51-.34ZM361.25,71.3A2.65,2.65,0,0,1,364,68.75a2.47,2.47,0,0,1,2.38,2.55A2.52,2.52,0,0,1,364,74,2.69,2.69,0,0,1,361.25,71.3Z"/><path class="cls-1" d="M398.48,87.28c0,.17-.34.34-.51.51a129,129,0,0,1-13.77,13.6c-4.42,3.23-8,4.76-10.88,4.59a4.51,4.51,0,0,1-4.08-2.72,5.86,5.86,0,0,1-.51-3.23,9.32,9.32,0,0,1,.68-4.25c2.89-9,11-18.7,15-18.19,2.21.34,2.72,2.72,1.36,5.61a36.24,36.24,0,0,1-7.82,10.37,8.88,8.88,0,0,1-3.74,2.21c-1.19.17-1.19.17-1.7,1.36-.68,2-1.19,4.25-.85,5.1.34,1.19,1,1.53,2.55,1.53,4.25,0,10.71-4.42,21.08-15.13.85-.85,1.53-1.36,2.21-2a.64.64,0,0,1,1,0A.52.52,0,0,1,398.48,87.28Zm-21.08,1a24.53,24.53,0,0,0-3.06,5.44,2.59,2.59,0,0,0,1-.68c3.57-2.89,8.84-10,8.33-11.56,0-.85-4.08,3.23-6.46,6.8Z"/><path class="cls-1" d="M424.66,85.92c-.51,0-1,.34-2,1-4.76,2.38-6.29,2.72-7.65,1.87-.68-.17-1-.51-1.53-1.36-.51-1.19-.51-1.53-.51-4.25a7,7,0,0,0-.34-2.89c-.51,0-2.89,2.38-4.76,4.76a76.13,76.13,0,0,0-9.52,13.26,9.72,9.72,0,0,1-1.7,2.89,1.14,1.14,0,0,1-1.7,0c-.85-.85-.85-.85,2.21-8.84.68-2,1.7-4.59,2-5.95.51-1.19.85-2.38,1-2.55a23.24,23.24,0,0,1,.85-3.23,1.76,1.76,0,0,1,3.23-.34c.51,1,.34,2.38-.68,5.1-.34,1.19-.51,2-.34,2,.17-.34,1-1.19,1.87-2.38,3.06-3.57,6.46-6.46,7.82-6.46,1.53,0,1.7.51,1.87,4.93.17,3.91.17,3.91.51,4.25,1,1,2.55.51,8-2a7.39,7.39,0,0,0,1.19-.68h.34C425,85.24,424.83,85.58,424.66,85.92Z"/></svg>